<svg width="198" height="21" viewBox="0 0 198 21" fill="none" xmlns="http://www.w3.org/2000/svg">
<path d="M11.5 0L14.0819 7.25532H22.4371L15.6776 11.7394L18.2595 18.9947L11.5 14.5106L4.74047 18.9947L7.32238 11.7394L0.56285 7.25532H8.91809L11.5 0Z" fill="white"/>
<path d="M56 0L58.6942 7.25532H67.4127L60.3593 11.7394L63.0534 18.9947L56 14.5106L48.9466 18.9947L51.6407 11.7394L44.5873 7.25532H53.3058L56 0Z" fill="white"/>
<path d="M98.5 0L100.857 7.25532H108.486L102.314 11.7394L104.672 18.9947L98.5 14.5106L92.3283 18.9947L94.6857 11.7394L88.5139 7.25532H96.1426L98.5 0Z" fill="white"/>
<path d="M143 0L145.245 7.25532H152.511L146.633 11.7394L148.878 18.9947L143 14.5106L137.122 18.9947L139.367 11.7394L133.489 7.25532H140.755L143 0Z" fill="white"/>
<path d="M187.5 0L189.857 7.25532H197.486L191.314 11.7394L193.672 18.9947L187.5 14.5106L181.328 18.9947L183.686 11.7394L177.514 7.25532H185.143L187.5 0Z" fill="white"/>
</svg>
